<svg width="30" height="31" viewBox="0 0 30 31" fill="none" xmlns="http://www.w3.org/2000/svg">
<path fill-rule="evenodd" clip-rule="evenodd" d="M14.8012 8.13565C14.3271 8.13565 13.9418 8.52097 13.9418 8.9951V16.9364C13.9418 17.4105 14.3271 17.7944 14.8012 17.7944H20.0209C20.4951 17.7944 20.879 17.4105 20.879 16.9364C20.879 16.4609 20.4951 16.077 20.0209 16.077H15.6607V8.9951C15.6607 8.52097 15.2753 8.13565 14.8012 8.13565ZM30 15.1836C30 23.5561 23.1889 30.3672 14.8178 30.3672C7.70302 30.3672 1.61955 25.5328 0.0224047 18.6114C-0.0850265 18.1501 0.204321 17.6889 0.666992 17.5815C1.11963 17.4798 1.58947 17.7634 1.69833 18.2261C3.11356 24.3625 8.50803 28.6483 14.8178 28.6483C22.242 28.6483 28.2825 22.6078 28.2825 15.1836C28.2825 7.75796 22.242 1.7189 14.8178 1.7189C9.57948 1.7189 4.821 4.79286 2.62367 9.47543H7.7331C8.20723 9.47543 8.59255 9.85932 8.59255 10.3334C8.59255 10.8076 8.20723 11.1929 7.7331 11.1929H1.23423C0.760099 11.1929 0.376211 10.8076 0.376211 10.3334V3.83601C0.376211 3.36188 0.760099 2.97656 1.23423 2.97656C1.70836 2.97656 2.09368 3.36188 2.09368 3.83601V6.90281C4.85681 2.67289 9.62962 0 14.8178 0C23.1889 0 30 6.81114 30 15.1836Z" fill="#626262"/>
</svg>
