<svg width="40" height="30" viewBox="0 0 40 30" fill="none" xmlns="http://www.w3.org/2000/svg">
<path fill-rule="evenodd" clip-rule="evenodd" d="M19.4333 7.07472C19.8368 7.48424 19.8368 8.14927 19.4333 8.56054L11.9251 16.1804C11.7302 16.3764 11.4681 16.4867 11.1939 16.4867C10.9197 16.4867 10.6542 16.3764 10.4628 16.1804L7.61573 13.291C7.21221 12.8798 7.21221 12.2165 7.61573 11.8052C8.02097 11.3957 8.67798 11.3974 9.07805 11.8052L11.1939 13.9526L17.9692 7.07472C18.3745 6.6652 19.0298 6.6652 19.4333 7.07472ZM37.9268 24.0988H37.1145C36.6386 21.927 34.7262 20.2976 32.4465 20.2976C30.1668 20.2976 28.2527 21.927 27.7802 24.0988H26.968V14.9844H37.9268V24.0988ZM32.4483 27.899C30.955 27.899 29.741 26.6669 29.741 25.1496L29.7392 25.1478C29.741 23.6305 30.9567 22.3984 32.4483 22.3984C33.9434 22.3984 35.1591 23.6322 35.1591 25.1496C35.1591 26.6669 33.9434 27.899 32.4483 27.899ZM26.968 8.23438H33.8571C34.1916 8.23438 34.5072 8.41638 34.6796 8.7069L37.1404 12.8756H26.968V8.23438ZM24.9023 7.18732V13.9304V13.9357V24.1002H13.571C13.0968 21.9266 11.1896 20.292 8.90814 20.292C6.62327 20.292 4.71604 21.9266 4.24182 24.1002H2.07076V5.09421C2.07076 3.44388 3.3934 2.10156 5.02127 2.10156H21.9518C23.5779 2.10156 24.9023 3.44388 24.9023 5.09421V7.18732ZM11.6164 25.161C11.6078 26.6696 10.3955 27.8947 8.90729 27.8947C7.41048 27.8947 6.19303 26.6608 6.19303 25.1435C6.19303 23.6262 7.41048 22.3906 8.90729 22.3906C10.3989 22.3906 11.6129 23.6209 11.6181 25.133C11.6181 25.1383 11.6147 25.1435 11.6147 25.1488C11.6147 25.154 11.6164 25.1575 11.6164 25.161ZM39.9741 13.8029C39.9586 13.6804 39.931 13.5649 39.8776 13.4599C39.8689 13.4389 39.8724 13.4144 39.8603 13.3934L36.4563 7.62863C35.9131 6.70809 34.9164 6.13581 33.8593 6.13581H26.9702V5.09275C26.9702 2.28561 24.7181 0 21.9503 0H5.01983C2.25039 0 0 2.28561 0 5.09275V25.1488C0 25.7298 0.462149 26.1988 1.03466 26.1988H4.24383C4.72323 28.3672 6.627 29.9965 8.90671 29.9965C11.1847 29.9965 13.0885 28.3672 13.5661 26.1988H25.9355H27.791C28.2652 28.3689 30.1707 30 32.4487 30C34.7284 30 36.6356 28.3689 37.1098 26.1988H38.9636C39.5344 26.1988 40 25.7298 40 25.1488V13.9534C40 13.9009 39.981 13.8554 39.9741 13.8029Z" fill="#626262"/>
</svg>
